<?xml version="1.0" encoding="UTF-8"?>
<!DOCTYPE svg PUBLIC "-//W3C//DTD SVG 1.0//EN" "http://www.w3.org/TR/2001/REC-SVG-20010904/DTD/svg10.dtd">
<svg width="964" height="84" xmlns="http://www.w3.org/2000/svg">
	<g fill="#000000">
		<!--101px	R--><path d="M0,0 v84 h41 v-38.5 h5 l14 38.5 h41 l-13 -36 v-48 h-88 Z"/>
		<!--098px	A--><path d="M107,0 v84 h41 v-44 l16 44 h41 l-30.5 -84 h-67.5 Z"/>
		<!--155px	M--><path d="M211,0 v84 h41 v-44 l16 44 h41 l16 -44 v44 h41 v-84 h-41 l-23.25 64 l-23.25 -64 h-67.5 Z"/>
		<!--155px	M--><path d="M372,0 v84 h41 v-44 l16 44 h41 l16 -44 v44 h41 v-84 h-41 l-23.25 64 l-23.25 -64 h-67.5 Z"/>
		<!--092px	S--><path d="M533,0 v34 l59 16 h-59 v34 h92 v-34 l-59 -16 h59 v-34 h-92 Z"/>
		<!--84px	T--><path d="M631,22 v40 h22 v22 h40 v-22 h22 v-40 h-22 v-22 h-40 v22 h-22 Z"/>
		<!--92px	E--><path d="M721,0 v84 h92 v-32 h-52 v-6.5 h22 l30 -7 h-52 v-6.5 h52 v-32 h-92 Z"/>
		<!--41px	I--><path d="M819,0 v84 h41 v-84 h-41 Z"/>
		<!--98px	N--><path d="M866,0 v84 h41 v-44 l16 44 h41 v-84 h-11 v53.5 l-19.5 -53.5 h-67.5 Z"/>
	</g>
</svg>